<svg width="33" height="33" viewBox="0 0 33 33" fill="none" xmlns="http://www.w3.org/2000/svg">
<g id="LinkedinLogo">
<path id="Vector" d="M26.9506 4.59277H6.78582C6.25121 4.59338 5.73867 4.80603 5.36064 5.18406C4.98261 5.56209 4.76996 6.07463 4.76935 6.60925V26.774C4.76996 27.3086 4.98261 27.8212 5.36064 28.1992C5.73867 28.5772 6.25121 28.7899 6.78582 28.7905H26.9506C27.4852 28.7899 27.9977 28.5772 28.3758 28.1992C28.7538 27.8212 28.9665 27.3086 28.9671 26.774V6.60925C28.9665 6.07463 28.7538 5.56209 28.3758 5.18406C27.9977 4.80603 27.4852 4.59338 26.9506 4.59277ZM12.8353 22.7412C12.8353 23.0086 12.729 23.265 12.5399 23.4541C12.3509 23.6432 12.0944 23.7494 11.827 23.7494C11.5596 23.7494 11.3032 23.6432 11.1141 23.4541C10.925 23.265 10.8188 23.0086 10.8188 22.7412V14.6753C10.8188 14.4079 10.925 14.1514 11.1141 13.9623C11.3032 13.7733 11.5596 13.667 11.827 13.667C12.0944 13.667 12.3509 13.7733 12.5399 13.9623C12.729 14.1514 12.8353 14.4079 12.8353 14.6753V22.7412ZM11.827 12.1547C11.5279 12.1547 11.2355 12.066 10.9868 11.8998C10.7381 11.7336 10.5442 11.4974 10.4298 11.2211C10.3153 10.9447 10.2854 10.6406 10.3437 10.3473C10.4021 10.0539 10.5461 9.78443 10.7576 9.57292C10.9691 9.36142 11.2386 9.21738 11.532 9.15902C11.8253 9.10067 12.1294 9.13062 12.4058 9.24509C12.6821 9.35955 12.9183 9.5534 13.0845 9.8021C13.2507 10.0508 13.3394 10.3432 13.3394 10.6423C13.3394 11.0434 13.18 11.4281 12.8964 11.7117C12.6128 11.9953 12.2281 12.1547 11.827 12.1547ZM23.9259 22.7412C23.9259 23.0086 23.8197 23.265 23.6306 23.4541C23.4415 23.6432 23.185 23.7494 22.9176 23.7494C22.6502 23.7494 22.3938 23.6432 22.2047 23.4541C22.0156 23.265 21.9094 23.0086 21.9094 22.7412V18.2041C21.9094 17.5356 21.6438 16.8945 21.1711 16.4218C20.6984 15.9491 20.0573 15.6835 19.3888 15.6835C18.7203 15.6835 18.0792 15.9491 17.6065 16.4218C17.1338 16.8945 16.8682 17.5356 16.8682 18.2041V22.7412C16.8682 23.0086 16.762 23.265 16.5729 23.4541C16.3838 23.6432 16.1274 23.7494 15.86 23.7494C15.5926 23.7494 15.3361 23.6432 15.147 23.4541C14.958 23.265 14.8517 23.0086 14.8517 22.7412V14.6753C14.8516 14.4274 14.9429 14.1882 15.108 14.0034C15.2731 13.8186 15.5006 13.7011 15.7468 13.6734C15.9931 13.6456 16.241 13.7096 16.4431 13.8531C16.6452 13.9966 16.7873 14.2095 16.8424 14.4511C17.5242 13.9878 18.3195 13.719 19.1426 13.6739C19.9658 13.6287 20.7857 13.8087 21.5142 14.1947C22.2427 14.5807 22.8521 15.1579 23.2771 15.8643C23.702 16.5708 23.9263 17.3797 23.9259 18.2041V22.7412Z" fill="white"/>
</g>
</svg>
